<svg width="150" height="37" viewBox="0 0 150 37" fill="none" xmlns="http://www.w3.org/2000/svg">
<path d="M33.9727 23H32.6533V14.127H27.7451V23H26.4326V13.0469H33.9727V23ZM35.832 19.2334C35.832 18.5088 35.9733 17.8571 36.2559 17.2783C36.543 16.6995 36.9395 16.2529 37.4453 15.9385C37.9557 15.624 38.5368 15.4668 39.1885 15.4668C40.1956 15.4668 41.0091 15.8154 41.6289 16.5127C42.2533 17.21 42.5654 18.1374 42.5654 19.2949V19.3838C42.5654 20.1038 42.4264 20.751 42.1484 21.3252C41.875 21.8949 41.4808 22.3392 40.9658 22.6582C40.4554 22.9772 39.8675 23.1367 39.2021 23.1367C38.1995 23.1367 37.3861 22.7881 36.7617 22.0908C36.1419 21.3936 35.832 20.4707 35.832 19.3223V19.2334ZM37.1035 19.3838C37.1035 20.2041 37.2926 20.8626 37.6709 21.3594C38.0537 21.8561 38.5641 22.1045 39.2021 22.1045C39.8447 22.1045 40.3551 21.8538 40.7334 21.3525C41.1117 20.8467 41.3008 20.1403 41.3008 19.2334C41.3008 18.4222 41.1071 17.766 40.7197 17.2646C40.3369 16.7588 39.8265 16.5059 39.1885 16.5059C38.5641 16.5059 38.0605 16.7542 37.6777 17.251C37.2949 17.7477 37.1035 18.4587 37.1035 19.3838ZM43.5977 21.9678L44.0352 21.4277C44.5273 20.7897 44.8076 19.8327 44.876 18.5566L44.9922 15.6035H49.7568V21.9678H50.707V25.1738H49.4424V23H44.2812V25.1738H43.0166L43.0234 21.9678H43.5977ZM45.0947 21.9678H48.4922V16.7725H46.2158L46.1406 18.5361C46.0632 20.0081 45.7145 21.152 45.0947 21.9678ZM58.3564 19.3838C58.3564 20.5094 58.099 21.4163 57.584 22.1045C57.069 22.7926 56.3717 23.1367 55.4922 23.1367C54.5944 23.1367 53.888 22.8519 53.373 22.2822V25.8438H52.1084V15.6035H53.2637L53.3252 16.4238C53.8402 15.7858 54.5557 15.4668 55.4717 15.4668C56.3604 15.4668 57.0622 15.8018 57.5771 16.4717C58.0967 17.1416 58.3564 18.0736 58.3564 19.2676V19.3838ZM57.0918 19.2402C57.0918 18.4062 56.9141 17.7477 56.5586 17.2646C56.2031 16.7816 55.7155 16.54 55.0957 16.54C54.3301 16.54 53.7559 16.8796 53.373 17.5586V21.0928C53.7513 21.7673 54.3301 22.1045 55.1094 22.1045C55.7155 22.1045 56.1963 21.8652 56.5518 21.3867C56.9118 20.9036 57.0918 20.1882 57.0918 19.2402ZM59.6348 19.2334C59.6348 18.5088 59.776 17.8571 60.0586 17.2783C60.3457 16.6995 60.7422 16.2529 61.248 15.9385C61.7585 15.624 62.3395 15.4668 62.9912 15.4668C63.9984 15.4668 64.8118 15.8154 65.4316 16.5127C66.056 17.21 66.3682 18.1374 66.3682 19.2949V19.3838C66.3682 20.1038 66.2292 20.751 65.9512 21.3252C65.6777 21.8949 65.2835 22.3392 64.7686 22.6582C64.2581 22.9772 63.6702 23.1367 63.0049 23.1367C62.0023 23.1367 61.1888 22.7881 60.5645 22.0908C59.9447 21.3936 59.6348 20.4707 59.6348 19.3223V19.2334ZM60.9062 19.3838C60.9062 20.2041 61.0954 20.8626 61.4736 21.3594C61.8564 21.8561 62.3669 22.1045 63.0049 22.1045C63.6475 22.1045 64.1579 21.8538 64.5361 21.3525C64.9144 20.8467 65.1035 20.1403 65.1035 19.2334C65.1035 18.4222 64.9098 17.766 64.5225 17.2646C64.1396 16.7588 63.6292 16.5059 62.9912 16.5059C62.3669 16.5059 61.8633 16.7542 61.4805 17.251C61.0977 17.7477 60.9062 18.4587 60.9062 19.3838ZM71.2012 16.0273C72.1309 16.0273 72.8737 16.3395 73.4297 16.9639C73.9902 17.5837 74.2705 18.4017 74.2705 19.418V19.5342C74.2705 20.2314 74.1361 20.8558 73.8672 21.4072C73.5983 21.9541 73.2109 22.3802 72.7051 22.6855C72.2038 22.9863 71.625 23.1367 70.9688 23.1367C69.9753 23.1367 69.1755 22.8063 68.5693 22.1455C67.9632 21.4801 67.6602 20.5892 67.6602 19.4727V18.8574C67.6602 17.3034 67.9473 16.0684 68.5215 15.1523C69.1003 14.2363 69.9525 13.6781 71.0781 13.4775C71.7161 13.3636 72.1468 13.2246 72.3701 13.0605C72.5934 12.8965 72.7051 12.6709 72.7051 12.3838H73.7441C73.7441 12.9535 73.6143 13.3978 73.3545 13.7168C73.0993 14.0358 72.6891 14.2614 72.124 14.3936L71.1807 14.6055C70.4287 14.7832 69.8636 15.084 69.4854 15.5078C69.1117 15.9271 68.8678 16.4876 68.7539 17.1895C69.4238 16.4147 70.2396 16.0273 71.2012 16.0273ZM70.9551 17.0664C70.3353 17.0664 69.8431 17.276 69.4785 17.6953C69.1139 18.11 68.9316 18.6865 68.9316 19.4248V19.5342C68.9316 20.3271 69.1139 20.9561 69.4785 21.4209C69.8477 21.8812 70.3444 22.1113 70.9688 22.1113C71.5977 22.1113 72.0944 21.8789 72.459 21.4141C72.8236 20.9492 73.0059 20.2702 73.0059 19.377C73.0059 18.6797 72.8213 18.1214 72.4521 17.7021C72.0876 17.2783 71.5885 17.0664 70.9551 17.0664ZM81.6123 23H80.3477V19.8418H76.9502V23H75.6787V15.6035H76.9502V18.8096H80.3477V15.6035H81.6123V23ZM86.7188 23.1367C85.7161 23.1367 84.9004 22.8086 84.2715 22.1523C83.6426 21.4915 83.3281 20.6097 83.3281 19.5068V19.2744C83.3281 18.5407 83.4671 17.8867 83.7451 17.3125C84.0277 16.7337 84.4196 16.2826 84.9209 15.959C85.4268 15.6309 85.9736 15.4668 86.5615 15.4668C87.5231 15.4668 88.2705 15.7835 88.8037 16.417C89.3369 17.0505 89.6035 17.9574 89.6035 19.1377V19.6641H84.5928C84.611 20.3932 84.8229 20.9834 85.2285 21.4346C85.6387 21.8812 86.1582 22.1045 86.7871 22.1045C87.2337 22.1045 87.612 22.0133 87.9219 21.8311C88.2318 21.6488 88.5029 21.4072 88.7354 21.1064L89.5078 21.708C88.888 22.6605 87.9583 23.1367 86.7188 23.1367ZM86.5615 16.5059C86.0511 16.5059 85.6227 16.6927 85.2764 17.0664C84.93 17.4355 84.7158 17.9551 84.6338 18.625H88.3389V18.5293C88.3024 17.8867 88.1292 17.39 87.8193 17.0391C87.5094 16.6836 87.0902 16.5059 86.5615 16.5059ZM94.1426 23.1367C93.14 23.1367 92.3242 22.8086 91.6953 22.1523C91.0664 21.4915 90.752 20.6097 90.752 19.5068V19.2744C90.752 18.5407 90.891 17.8867 91.1689 17.3125C91.4515 16.7337 91.8434 16.2826 92.3447 15.959C92.8506 15.6309 93.3975 15.4668 93.9854 15.4668C94.9469 15.4668 95.6943 15.7835 96.2275 16.417C96.7607 17.0505 97.0273 17.9574 97.0273 19.1377V19.6641H92.0166C92.0348 20.3932 92.2467 20.9834 92.6523 21.4346C93.0625 21.8812 93.582 22.1045 94.2109 22.1045C94.6576 22.1045 95.0358 22.0133 95.3457 21.8311C95.6556 21.6488 95.9268 21.4072 96.1592 21.1064L96.9316 21.708C96.3118 22.6605 95.3822 23.1367 94.1426 23.1367ZM93.9854 16.5059C93.4749 16.5059 93.0465 16.6927 92.7002 17.0664C92.3538 17.4355 92.1396 17.9551 92.0576 18.625H95.7627V18.5293C95.7262 17.8867 95.5531 17.39 95.2432 17.0391C94.9333 16.6836 94.514 16.5059 93.9854 16.5059Z" fill="#514A7E"/>
<rect x="0.25" y="0.25" width="148.78" height="36.5" stroke="#514A7E" stroke-width="0.5"/>
<path d="M136.344 19.1768C136.442 19.0791 136.442 18.9209 136.344 18.8232L134.753 17.2322C134.656 17.1346 134.497 17.1346 134.4 17.2322C134.302 17.3299 134.302 17.4882 134.4 17.5858L135.814 19L134.4 20.4142C134.302 20.5118 134.302 20.6701 134.4 20.7678C134.497 20.8654 134.656 20.8654 134.753 20.7678L136.344 19.1768ZM110.951 19.25H136.167V18.75H110.951V19.25Z" fill="#514A7E"/>
</svg>
