<svg width="170" height="57" viewBox="0 0 170 57" fill="none" xmlns="http://www.w3.org/2000/svg">
<g filter="url(#filter0_d_161_1581)">
<rect x="10.25" y="6.25" width="148.78" height="36.5" fill="#514A7E" stroke="#514A7E" stroke-width="0.5"/>
<path d="M43.9727 29H42.6533V20.127H37.7451V29H36.4326V19.0469H43.9727V29ZM45.832 25.2334C45.832 24.5088 45.9733 23.8571 46.2559 23.2783C46.543 22.6995 46.9395 22.2529 47.4453 21.9385C47.9557 21.624 48.5368 21.4668 49.1885 21.4668C50.1956 21.4668 51.0091 21.8154 51.6289 22.5127C52.2533 23.21 52.5654 24.1374 52.5654 25.2949V25.3838C52.5654 26.1038 52.4264 26.751 52.1484 27.3252C51.875 27.8949 51.4808 28.3392 50.9658 28.6582C50.4554 28.9772 49.8675 29.1367 49.2021 29.1367C48.1995 29.1367 47.3861 28.7881 46.7617 28.0908C46.1419 27.3936 45.832 26.4707 45.832 25.3223V25.2334ZM47.1035 25.3838C47.1035 26.2041 47.2926 26.8626 47.6709 27.3594C48.0537 27.8561 48.5641 28.1045 49.2021 28.1045C49.8447 28.1045 50.3551 27.8538 50.7334 27.3525C51.1117 26.8467 51.3008 26.1403 51.3008 25.2334C51.3008 24.4222 51.1071 23.766 50.7197 23.2646C50.3369 22.7588 49.8265 22.5059 49.1885 22.5059C48.5641 22.5059 48.0605 22.7542 47.6777 23.251C47.2949 23.7477 47.1035 24.4587 47.1035 25.3838ZM53.5977 27.9678L54.0352 27.4277C54.5273 26.7897 54.8076 25.8327 54.876 24.5566L54.9922 21.6035H59.7568V27.9678H60.707V31.1738H59.4424V29H54.2812V31.1738H53.0166L53.0234 27.9678H53.5977ZM55.0947 27.9678H58.4922V22.7725H56.2158L56.1406 24.5361C56.0632 26.0081 55.7145 27.152 55.0947 27.9678ZM68.3564 25.3838C68.3564 26.5094 68.099 27.4163 67.584 28.1045C67.069 28.7926 66.3717 29.1367 65.4922 29.1367C64.5944 29.1367 63.888 28.8519 63.373 28.2822V31.8438H62.1084V21.6035H63.2637L63.3252 22.4238C63.8402 21.7858 64.5557 21.4668 65.4717 21.4668C66.3604 21.4668 67.0622 21.8018 67.5771 22.4717C68.0967 23.1416 68.3564 24.0736 68.3564 25.2676V25.3838ZM67.0918 25.2402C67.0918 24.4062 66.9141 23.7477 66.5586 23.2646C66.2031 22.7816 65.7155 22.54 65.0957 22.54C64.3301 22.54 63.7559 22.8796 63.373 23.5586V27.0928C63.7513 27.7673 64.3301 28.1045 65.1094 28.1045C65.7155 28.1045 66.1963 27.8652 66.5518 27.3867C66.9118 26.9036 67.0918 26.1882 67.0918 25.2402ZM69.6348 25.2334C69.6348 24.5088 69.776 23.8571 70.0586 23.2783C70.3457 22.6995 70.7422 22.2529 71.248 21.9385C71.7585 21.624 72.3395 21.4668 72.9912 21.4668C73.9984 21.4668 74.8118 21.8154 75.4316 22.5127C76.056 23.21 76.3682 24.1374 76.3682 25.2949V25.3838C76.3682 26.1038 76.2292 26.751 75.9512 27.3252C75.6777 27.8949 75.2835 28.3392 74.7686 28.6582C74.2581 28.9772 73.6702 29.1367 73.0049 29.1367C72.0023 29.1367 71.1888 28.7881 70.5645 28.0908C69.9447 27.3936 69.6348 26.4707 69.6348 25.3223V25.2334ZM70.9062 25.3838C70.9062 26.2041 71.0954 26.8626 71.4736 27.3594C71.8564 27.8561 72.3669 28.1045 73.0049 28.1045C73.6475 28.1045 74.1579 27.8538 74.5361 27.3525C74.9144 26.8467 75.1035 26.1403 75.1035 25.2334C75.1035 24.4222 74.9098 23.766 74.5225 23.2646C74.1396 22.7588 73.6292 22.5059 72.9912 22.5059C72.3669 22.5059 71.8633 22.7542 71.4805 23.251C71.0977 23.7477 70.9062 24.4587 70.9062 25.3838ZM81.2012 22.0273C82.1309 22.0273 82.8737 22.3395 83.4297 22.9639C83.9902 23.5837 84.2705 24.4017 84.2705 25.418V25.5342C84.2705 26.2314 84.1361 26.8558 83.8672 27.4072C83.5983 27.9541 83.2109 28.3802 82.7051 28.6855C82.2038 28.9863 81.625 29.1367 80.9688 29.1367C79.9753 29.1367 79.1755 28.8063 78.5693 28.1455C77.9632 27.4801 77.6602 26.5892 77.6602 25.4727V24.8574C77.6602 23.3034 77.9473 22.0684 78.5215 21.1523C79.1003 20.2363 79.9525 19.6781 81.0781 19.4775C81.7161 19.3636 82.1468 19.2246 82.3701 19.0605C82.5934 18.8965 82.7051 18.6709 82.7051 18.3838H83.7441C83.7441 18.9535 83.6143 19.3978 83.3545 19.7168C83.0993 20.0358 82.6891 20.2614 82.124 20.3936L81.1807 20.6055C80.4287 20.7832 79.8636 21.084 79.4854 21.5078C79.1117 21.9271 78.8678 22.4876 78.7539 23.1895C79.4238 22.4147 80.2396 22.0273 81.2012 22.0273ZM80.9551 23.0664C80.3353 23.0664 79.8431 23.276 79.4785 23.6953C79.1139 24.11 78.9316 24.6865 78.9316 25.4248V25.5342C78.9316 26.3271 79.1139 26.9561 79.4785 27.4209C79.8477 27.8812 80.3444 28.1113 80.9688 28.1113C81.5977 28.1113 82.0944 27.8789 82.459 27.4141C82.8236 26.9492 83.0059 26.2702 83.0059 25.377C83.0059 24.6797 82.8213 24.1214 82.4521 23.7021C82.0876 23.2783 81.5885 23.0664 80.9551 23.0664ZM91.6123 29H90.3477V25.8418H86.9502V29H85.6787V21.6035H86.9502V24.8096H90.3477V21.6035H91.6123V29ZM96.7188 29.1367C95.7161 29.1367 94.9004 28.8086 94.2715 28.1523C93.6426 27.4915 93.3281 26.6097 93.3281 25.5068V25.2744C93.3281 24.5407 93.4671 23.8867 93.7451 23.3125C94.0277 22.7337 94.4196 22.2826 94.9209 21.959C95.4268 21.6309 95.9736 21.4668 96.5615 21.4668C97.5231 21.4668 98.2705 21.7835 98.8037 22.417C99.3369 23.0505 99.6035 23.9574 99.6035 25.1377V25.6641H94.5928C94.611 26.3932 94.8229 26.9834 95.2285 27.4346C95.6387 27.8812 96.1582 28.1045 96.7871 28.1045C97.2337 28.1045 97.612 28.0133 97.9219 27.8311C98.2318 27.6488 98.5029 27.4072 98.7354 27.1064L99.5078 27.708C98.888 28.6605 97.9583 29.1367 96.7188 29.1367ZM96.5615 22.5059C96.0511 22.5059 95.6227 22.6927 95.2764 23.0664C94.93 23.4355 94.7158 23.9551 94.6338 24.625H98.3389V24.5293C98.3024 23.8867 98.1292 23.39 97.8193 23.0391C97.5094 22.6836 97.0902 22.5059 96.5615 22.5059ZM104.143 29.1367C103.14 29.1367 102.324 28.8086 101.695 28.1523C101.066 27.4915 100.752 26.6097 100.752 25.5068V25.2744C100.752 24.5407 100.891 23.8867 101.169 23.3125C101.451 22.7337 101.843 22.2826 102.345 21.959C102.851 21.6309 103.397 21.4668 103.985 21.4668C104.947 21.4668 105.694 21.7835 106.228 22.417C106.761 23.0505 107.027 23.9574 107.027 25.1377V25.6641H102.017C102.035 26.3932 102.247 26.9834 102.652 27.4346C103.062 27.8812 103.582 28.1045 104.211 28.1045C104.658 28.1045 105.036 28.0133 105.346 27.8311C105.656 27.6488 105.927 27.4072 106.159 27.1064L106.932 27.708C106.312 28.6605 105.382 29.1367 104.143 29.1367ZM103.985 22.5059C103.475 22.5059 103.047 22.6927 102.7 23.0664C102.354 23.4355 102.14 23.9551 102.058 24.625H105.763V24.5293C105.726 23.8867 105.553 23.39 105.243 23.0391C104.933 22.6836 104.514 22.5059 103.985 22.5059Z" fill="#FFFDF5"/>
<path d="M146.344 25.1768C146.442 25.0791 146.442 24.9209 146.344 24.8232L144.753 23.2322C144.656 23.1346 144.497 23.1346 144.4 23.2322C144.302 23.3299 144.302 23.4882 144.4 23.5858L145.814 25L144.4 26.4142C144.302 26.5118 144.302 26.6701 144.4 26.7678C144.497 26.8654 144.656 26.8654 144.753 26.7678L146.344 25.1768ZM120.951 25.25H146.167V24.75H120.951V25.25Z" fill="#FFFDF5"/>
</g>
<defs>
<filter id="filter0_d_161_1581" x="0" y="0" width="169.28" height="57" filterUnits="userSpaceOnUse" color-interpolation-filters="sRGB">
<feFlood flood-opacity="0" result="BackgroundImageFix"/>
<feColorMatrix in="SourceAlpha" type="matrix" values="0 0 0 0 0 0 0 0 0 0 0 0 0 0 0 0 0 0 127 0" result="hardAlpha"/>
<feOffset dy="4"/>
<feGaussianBlur stdDeviation="5"/>
<feComposite in2="hardAlpha" operator="out"/>
<feColorMatrix type="matrix" values="0 0 0 0 0.31816 0 0 0 0 0.289236 0 0 0 0 0.495833 0 0 0 0.4 0"/>
<feBlend mode="normal" in2="BackgroundImageFix" result="effect1_dropShadow_161_1581"/>
<feBlend mode="normal" in="SourceGraphic" in2="effect1_dropShadow_161_1581" result="shape"/>
</filter>
</defs>
</svg>
